<svg width="10" height="14" viewBox="0 0 10 14" fill="none" xmlns="http://www.w3.org/2000/svg">
<path d="M4.99977 0.647095C3.68976 0.648656 2.43386 1.17506 1.50754 2.11082C0.581227 3.04659 0.0601445 4.31532 0.058599 5.63869C0.05703 6.72015 0.406718 7.77227 1.05402 8.63365C1.05402 8.63365 1.18878 8.81289 1.21079 8.83876L4.99977 13.353L8.79055 8.83649C8.81031 8.81244 8.94552 8.63365 8.94552 8.63365L8.94597 8.63229C9.59295 7.77129 9.94248 6.71966 9.94094 5.63869C9.9394 4.31532 9.41831 3.04659 8.492 2.11082C7.56568 1.17506 6.30978 0.648656 4.99977 0.647095ZM4.99977 7.45382C4.6444 7.45382 4.29701 7.34736 4.00153 7.14791C3.70605 6.94846 3.47575 6.66498 3.33975 6.33331C3.20376 6.00164 3.16818 5.63668 3.23751 5.28458C3.30683 4.93248 3.47796 4.60905 3.72925 4.3552C3.98053 4.10135 4.30069 3.92848 4.64923 3.85844C4.99778 3.78841 5.35905 3.82435 5.68737 3.96173C6.01569 4.09912 6.29631 4.33177 6.49375 4.63026C6.69118 4.92876 6.79656 5.27969 6.79656 5.63869C6.79597 6.11991 6.60647 6.58124 6.26964 6.92152C5.9328 7.26179 5.47613 7.45322 4.99977 7.45382Z" fill="white"/>
</svg>
