<svg width="106" height="56" viewBox="0 0 106 56" fill="none" xmlns="http://www.w3.org/2000/svg">
<path fill-rule="evenodd" clip-rule="evenodd" d="M90.597 14.4228C85.1424 14.9134 78.3516 16.7267 72.455 17.3717C65.8589 18.0939 59.2968 18.5547 52.6412 18.5892C35.1249 18.6792 30.3919 17.0197 14.5175 14.6368L17.8571 7.39582L12.251 13.972C11.502 13.1785 10.6874 12.2832 9.86055 11.568C7.97297 9.93657 9.02786 11.1488 8.22149 8.61094C4.89599 7.80749 3.57737 7.72036 0.116211 8.02267C1.40501 14.3772 8.93956 9.57637 10.2436 15.2298C7.36248 14.8719 4.40421 14.3813 1.49798 14.7573C11.6756 16.8057 19.2997 19.4798 28.1616 23.9794C30.5971 25.2162 34.1723 27.5967 36.4265 28.4043L29.3908 22.7462C27.564 21.5685 22.4298 19.2032 21.1305 18.1389C25.9278 18.374 31.5286 19.5722 36.6201 19.9458C48.3584 20.8066 57.635 20.6662 69.3487 19.6979C74.2858 19.2897 79.6673 18.1301 84.3822 17.9003C80.148 19.333 72.0819 24.5145 68.7125 27.5932C68.626 27.6727 68.3693 27.9084 68.2868 27.9909C67.8144 28.4633 68.0465 28.1441 67.6652 28.6797C69.064 28.116 70.2118 27.3242 71.5562 26.5687C73.0719 25.7167 74.1648 25.215 75.6302 24.4215C83.1723 20.337 91.1946 17.3647 99.6507 15.4876C99.9606 15.4186 100.676 15.259 100.955 15.1654L94.913 15.0929C96.8901 9.31615 103.811 14.5164 105.036 8.0256C101.967 7.32857 99.618 7.73205 96.7328 8.63784C95.8404 10.7891 97.0942 10.2547 95.3908 11.5569C94.5727 12.1826 94.8703 11.7803 94.0575 12.5855C93.5254 13.1124 93.7903 13.0902 93.0301 13.6609L86.2259 6.34326L90.5958 14.4228H90.597Z" fill="white"/>
<path fill-rule="evenodd" clip-rule="evenodd" d="M23.1953 3.61673C27.5172 3.76819 32.9291 3.07935 37.4481 2.92614C46.9819 2.60336 57.8929 2.45951 67.3986 2.88813C72.0158 3.0963 77.6306 3.73193 82.0783 3.61673C62.9393 -1.15369 42.3349 -1.25719 23.1953 3.61673Z" fill="white"/>
<path fill-rule="evenodd" clip-rule="evenodd" d="M18.2367 36.1464L4.63067 23.8058C3.40151 22.4135 1.40633 20.7066 0 19.7563C0.554347 22.5228 2.19868 26.3799 4.06813 28.2756C7.07611 31.3257 14.52 36.309 18.2367 36.1464Z" fill="white"/>
<path fill-rule="evenodd" clip-rule="evenodd" d="M87.0352 36.1936C90.487 36.0673 96.214 32.4646 98.4034 30.8899C100.038 29.7145 101.448 27.9532 102.485 26.4305C104.028 24.1646 104.613 22.76 105.253 19.8018C101.141 22.8875 97.1309 27.3749 93.6698 30.0437C92.443 30.9899 92.6523 30.8828 91.505 32.1488L87.0352 36.1936Z" fill="white"/>
<path d="M28.551 32.6484C30.476 32.6484 31.9221 32.9759 32.8887 33.6308C33.8553 34.2857 34.3383 35.319 34.3383 36.7318C34.3383 38.1521 33.857 39.1895 32.8945 39.8444C31.932 40.4993 30.4842 40.8268 28.551 40.8268C26.6102 40.8268 25.1606 40.4993 24.2016 39.8444C23.2432 39.1895 22.7637 38.1521 22.7637 36.7318C22.7637 35.3196 23.2449 34.2857 24.2074 33.6308C25.1699 32.9759 26.6178 32.6484 28.551 32.6484ZM28.551 38.7673C29.1661 38.7673 29.6872 38.7416 30.1134 38.6901C30.5397 38.6387 30.8847 38.5381 31.149 38.3884C31.4134 38.2387 31.6046 38.0311 31.7233 37.7668C31.8414 37.5025 31.901 37.1575 31.901 36.7312C31.901 36.3049 31.842 35.9599 31.7233 35.6956C31.6052 35.4313 31.4134 35.226 31.149 35.0804C30.8847 34.9342 30.5397 34.836 30.1134 34.7845C29.6872 34.7331 29.1667 34.7074 28.551 34.7074C27.9358 34.7074 27.4148 34.7331 26.9885 34.7845C26.5622 34.836 26.2172 34.9342 25.9529 35.0804C25.6886 35.2266 25.4974 35.4313 25.3787 35.6956C25.2606 35.9599 25.2009 36.3049 25.2009 36.7312C25.2009 37.1575 25.26 37.5025 25.3787 37.7668C25.4968 38.0311 25.6886 38.2381 25.9529 38.3884C26.2172 38.5381 26.5622 38.6387 26.9885 38.6901C27.4148 38.7416 27.9352 38.7673 28.551 38.7673Z" fill="#ED3237"/>
<path d="M46.813 40.696H43.5348L41.7712 38.6014H38.0077V40.696H35.5576V36.6483H42.4454C42.8244 36.6483 43.1436 36.5694 43.4038 36.4115C43.6641 36.2536 43.7945 36.0367 43.7945 35.7607C43.7945 35.4531 43.6763 35.2221 43.4395 35.0683C43.2027 34.9145 42.8711 34.8373 42.4454 34.8373H35.5576L37.1552 32.7778H42.2443C42.694 32.7778 43.1594 32.8193 43.6407 32.9018C44.1219 32.9848 44.5599 33.1328 44.9546 33.3456C45.3493 33.5585 45.6744 33.8468 45.9312 34.2093C46.1873 34.5724 46.3159 35.0379 46.3159 35.6057C46.3159 35.9133 46.2686 36.2051 46.1738 36.4817C46.0791 36.7577 45.9428 37.0062 45.7657 37.2272C45.5879 37.4483 45.371 37.6354 45.1148 37.7892C44.8587 37.943 44.5687 38.0517 44.2447 38.1149C44.3786 38.2172 44.5289 38.3476 44.6944 38.5055C44.8599 38.6634 45.0809 38.8803 45.3569 39.1563L46.8124 40.6948L46.813 40.696Z" fill="#ED3237"/>
<path d="M50.1737 40.6959H47.7241V32.7783H50.1737V40.6959Z" fill="#ED3237"/>
<path d="M60.8965 38.6604L59.3224 40.6959H51.7007V32.7783H60.8731L59.2873 34.8378H54.1625V35.7845H60.4352L59.0265 37.5832H54.1625V38.6604H60.8965Z" fill="#ED3237"/>
<path d="M69.7603 40.8263C69.6025 40.8263 69.4469 40.8006 69.2925 40.7491C69.1388 40.6977 68.9668 40.5813 68.778 40.4L63.9257 36.0448V40.6959H61.7007V34.1274C61.7007 33.8672 61.7381 33.642 61.813 33.4526C61.8878 33.2631 61.9866 33.1093 62.1088 32.9912C62.2311 32.8731 62.3732 32.786 62.5351 32.731C62.6971 32.676 62.8643 32.6479 63.038 32.6479C63.1877 32.6479 63.3397 32.6737 63.4935 32.7251C63.6473 32.7766 63.8228 32.893 64.0204 33.0742L68.8727 37.4295V32.7783H71.1094V39.3346C71.1094 39.5948 71.0719 39.82 70.9971 40.0094C70.9223 40.1989 70.8234 40.3544 70.7012 40.4766C70.579 40.5989 70.4351 40.6877 70.2691 40.7427C70.1036 40.7977 69.934 40.8257 69.7603 40.8257V40.8263Z" fill="#ED3237"/>
<path d="M82.3885 32.7783L80.8027 34.8378H77.9742V40.6959H75.5247V34.8378H71.8086L73.3944 32.7783H82.3885Z" fill="#ED3237"/>
<path d="M25.1058 47.7289L25.883 46.6594H26.9274C27.0519 46.6594 27.1811 46.6594 27.3162 46.6594C27.4507 46.6594 27.5682 46.6635 27.6677 46.6717C27.6098 46.5969 27.5425 46.5027 27.4653 46.3887C27.3887 46.2747 27.315 46.1682 27.2449 46.0682L26.4987 44.9677L24.5462 47.7284H23.0229L25.6906 43.9666C25.7777 43.8462 25.8877 43.7386 26.0204 43.6433C26.1531 43.5479 26.321 43.5 26.5239 43.5C26.7186 43.5 26.8812 43.5444 27.0121 43.6339C27.1425 43.7228 27.2536 43.8339 27.3449 43.9666L29.9441 47.7284H25.1064L25.1058 47.7289Z" fill="white"/>
<path d="M30.279 43.5688L32.1508 46.3295L34.1033 43.5688H35.6208L32.9595 47.3306C32.8683 47.451 32.7566 47.5586 32.6239 47.6539C32.4912 47.7493 32.3257 47.7972 32.1263 47.7972C31.9315 47.7972 31.769 47.7528 31.638 47.6633C31.5076 47.5744 31.3965 47.4633 31.3053 47.3306L28.7002 43.5688H30.2796H30.279Z" fill="white"/>
<path d="M41.2471 43.5688L40.4139 44.6506H38.928V47.7288H37.641V44.6506H35.6885L36.5218 43.5688H41.2471Z" fill="white"/>
<path d="M43.9582 43.5005C44.9698 43.5005 45.7294 43.6724 46.237 44.0168C46.7446 44.3607 46.9989 44.9039 46.9989 45.646C46.9989 46.3921 46.7463 46.9371 46.2405 47.2815C45.7347 47.6253 44.9739 47.7978 43.9582 47.7978C42.9384 47.7978 42.177 47.6259 41.673 47.2815C41.1695 46.9377 40.9175 46.3921 40.9175 45.646C40.9175 44.9039 41.1701 44.3607 41.6759 44.0168C42.1817 43.673 42.9425 43.5005 43.9576 43.5005H43.9582ZM43.9582 46.7149C44.2816 46.7149 44.5552 46.7014 44.7792 46.6745C45.0032 46.6476 45.1844 46.595 45.323 46.5161C45.4616 46.4371 45.5622 46.3284 45.6248 46.1898C45.6867 46.0512 45.7183 45.8693 45.7183 45.646C45.7183 45.422 45.6873 45.2407 45.6248 45.1021C45.5628 44.9635 45.4622 44.8554 45.323 44.7788C45.1844 44.7022 45.0026 44.6501 44.7792 44.6232C44.5552 44.5963 44.2816 44.5829 43.9582 44.5829C43.6348 44.5829 43.3612 44.5963 43.1372 44.6232C42.9132 44.6501 42.732 44.7022 42.5934 44.7788C42.4548 44.8554 42.3542 44.963 42.2917 45.1021C42.2297 45.2407 42.1981 45.4226 42.1981 45.646C42.1981 45.8699 42.2291 46.0512 42.2917 46.1898C42.3536 46.3284 42.4542 46.4377 42.5934 46.5161C42.732 46.595 42.9138 46.6476 43.1372 46.6745C43.3612 46.7014 43.6348 46.7149 43.9582 46.7149Z" fill="white"/>
<path d="M50.0586 45.2231L49.4306 46.0248H47.3535L47.9815 45.2231H50.0586Z" fill="white"/>
<path d="M55.232 45.5897C55.4144 45.6435 55.5688 45.7493 55.6951 45.9066C55.8214 46.0639 55.8846 46.2674 55.8846 46.5159C55.8846 46.6902 55.8577 46.8504 55.8039 46.9977C55.7501 47.1451 55.6589 47.2726 55.5302 47.3802C55.4016 47.4878 55.2285 47.5731 55.011 47.6351C54.7934 47.6971 54.5209 47.7287 54.1935 47.7287H50.5376V45.1979H54.2186C54.3139 45.1979 54.3981 45.178 54.4707 45.1388C54.5432 45.0996 54.5794 45.026 54.5794 44.9184C54.5794 44.8149 54.542 44.7441 54.4677 44.7073C54.3929 44.6698 54.3104 44.6511 54.2192 44.6511H50.5382L51.4089 43.5693H54.1637C54.4122 43.5693 54.6373 43.5933 54.8385 43.6407C55.0396 43.688 55.2115 43.7611 55.3548 43.8582C55.4975 43.9559 55.6074 44.0757 55.6846 44.219C55.7612 44.3623 55.7998 44.5289 55.7998 44.7195C55.7998 44.8441 55.7834 44.954 55.7501 45.0493C55.7168 45.1447 55.6747 45.2289 55.6226 45.3014C55.5706 45.3739 55.5109 45.4341 55.4425 45.4815C55.3741 45.5288 55.3045 45.5651 55.2343 45.5902L55.232 45.5897ZM51.8311 46.0873V46.6592H54.1999C54.3408 46.6592 54.4426 46.634 54.5046 46.5843C54.5666 46.5346 54.5975 46.4621 54.5975 46.3668C54.5975 46.2756 54.5666 46.206 54.5046 46.1586C54.4426 46.1113 54.3408 46.0873 54.1999 46.0873H51.8311Z" fill="white"/>
<path d="M57.9174 47.7289L58.6945 46.6594H59.7389C59.8634 46.6594 59.9927 46.6594 60.1277 46.6594C60.2622 46.6594 60.3798 46.6635 60.4792 46.6717C60.4213 46.5969 60.354 46.5027 60.2769 46.3887C60.2002 46.2747 60.1266 46.1682 60.0564 46.0682L59.3103 44.9677L57.3578 47.7284H55.8345L58.5021 43.9666C58.5892 43.8462 58.6992 43.7386 58.8319 43.6433C58.9647 43.5479 59.1325 43.5 59.3354 43.5C59.5301 43.5 59.6927 43.5444 59.8237 43.6339C59.9541 43.7228 60.0652 43.8339 60.1564 43.9666L62.7556 47.7284H57.9179L57.9174 47.7289Z" fill="white"/>
<path d="M69.1228 43.5689L67.8106 44.7689C67.6656 44.9016 67.5434 45.0121 67.444 45.1016C67.3446 45.1905 67.2598 45.2653 67.189 45.3255C67.1189 45.3858 67.0592 45.4355 67.0119 45.4747C66.9639 45.5138 66.9218 45.5483 66.8844 45.577C66.9218 45.6021 66.9633 45.6331 67.0089 45.67C67.0545 45.7074 67.1148 45.76 67.189 45.8284C67.2639 45.8968 67.3569 45.9828 67.4685 46.0863C67.5802 46.1898 67.7212 46.3208 67.8913 46.4781L69.2222 47.7277H67.4066L65.9891 46.3535L64.5278 47.7277H62.9297L64.2851 46.4781C64.4424 46.3331 64.5752 46.212 64.6828 46.1144C64.7904 46.0167 64.8798 45.9372 64.95 45.8752C65.0208 45.8132 65.0798 45.7635 65.1272 45.7261C65.1751 45.6887 65.2172 45.6559 65.2547 45.6267C65.2172 45.5975 65.1757 45.5653 65.1301 45.5302C65.0845 45.4951 65.0266 45.4454 64.9559 45.3811C64.8857 45.3168 64.7962 45.2361 64.6886 45.1384C64.581 45.0408 64.446 44.9156 64.2846 44.7624L63.0098 43.5684H64.7945L66.1189 44.8618L67.4557 43.5684H69.1222L69.1228 43.5689Z" fill="white"/>
<path d="M72.0388 43.5005C73.0504 43.5005 73.81 43.6724 74.3176 44.0168C74.8251 44.3607 75.0795 44.9039 75.0795 45.646C75.0795 46.3921 74.8269 46.9371 74.3211 47.2815C73.8153 47.6253 73.0545 47.7978 72.0388 47.7978C71.019 47.7978 70.2576 47.6259 69.7536 47.2815C69.2501 46.9377 68.998 46.3921 68.998 45.646C68.998 44.9039 69.2507 44.3607 69.7565 44.0168C70.2623 43.673 71.023 43.5005 72.0382 43.5005H72.0388ZM72.0388 46.7149C72.3621 46.7149 72.6358 46.7014 72.8598 46.6745C73.0837 46.6476 73.265 46.595 73.4036 46.5161C73.5422 46.4371 73.6427 46.3284 73.7053 46.1898C73.7673 46.0512 73.7989 45.8693 73.7989 45.646C73.7989 45.422 73.7679 45.2407 73.7053 45.1021C73.6433 44.9635 73.5428 44.8554 73.4036 44.7788C73.265 44.7022 73.0831 44.6501 72.8598 44.6232C72.6358 44.5963 72.3621 44.5829 72.0388 44.5829C71.7154 44.5829 71.4417 44.5963 71.2178 44.6232C70.9938 44.6501 70.8125 44.7022 70.674 44.7788C70.5354 44.8554 70.4348 44.963 70.3722 45.1021C70.3102 45.2407 70.2787 45.4226 70.2787 45.646C70.2787 45.8699 70.3097 46.0512 70.3722 46.1898C70.4342 46.3284 70.5348 46.4377 70.674 46.5161C70.8125 46.595 70.9944 46.6476 71.2178 46.6745C71.4417 46.7014 71.7154 46.7149 72.0388 46.7149Z" fill="white"/>
<path d="M81.6327 47.7288H79.9106L78.9843 46.6283H77.0073V47.7288H75.7202V45.602H79.3393C79.5381 45.602 79.7059 45.5605 79.8427 45.4775C79.9796 45.3944 80.048 45.2804 80.048 45.1354C80.048 44.974 79.986 44.8524 79.8614 44.7717C79.7369 44.691 79.5632 44.6506 79.3393 44.6506H75.7202L76.5599 43.5688H79.2334C79.4697 43.5688 79.7141 43.5905 79.9673 43.6343C80.2199 43.6776 80.4503 43.7554 80.6573 43.8677C80.8643 43.9793 81.0356 44.1308 81.1701 44.3214C81.3046 44.5121 81.3724 44.7565 81.3724 45.0553C81.3724 45.2173 81.3473 45.3705 81.2976 45.5155C81.2479 45.6605 81.1766 45.7909 81.083 45.9073C80.9894 46.0231 80.876 46.1219 80.7409 46.2026C80.6064 46.2833 80.4538 46.3406 80.2836 46.3733C80.3538 46.4271 80.4327 46.4955 80.5199 46.5786C80.607 46.6616 80.7228 46.7756 80.8678 46.9207L81.6327 47.7288Z" fill="white"/>
<path d="M31.355 54.5744H31.0176V52.384H29.6212V54.5744H29.2832V52.0781H31.355V54.5744Z" fill="white"/>
<path d="M34.5634 53.3379C34.5634 53.7092 34.4371 54.0179 34.1845 54.2641C33.9319 54.5103 33.6126 54.6337 33.2261 54.6337C32.9612 54.6337 32.7378 54.5653 32.5554 54.4284C32.4489 54.3495 32.356 54.2431 32.277 54.1091L32.2677 55.4506H31.9297V52.0777H32.249V52.5069C32.3887 52.3151 32.5641 52.18 32.7741 52.1005C32.9173 52.0455 33.0705 52.0181 33.2349 52.0181C33.6454 52.0181 33.9757 52.1578 34.2254 52.4379C34.4506 52.6905 34.5634 52.9899 34.5634 53.3367V53.3379ZM34.2254 53.3332C34.2254 53.0472 34.1301 52.8075 33.9401 52.6145C33.75 52.4215 33.515 52.3245 33.2349 52.3245C32.9489 52.3245 32.7133 52.4221 32.5273 52.6163C32.3419 52.811 32.249 53.0531 32.249 53.342C32.249 53.6185 32.3408 53.8524 32.525 54.0425C32.7092 54.2325 32.9425 54.3278 33.2255 54.3278C33.5056 54.3278 33.7418 54.2325 33.9354 54.0425C34.1284 53.8524 34.2254 53.6156 34.2254 53.3326V53.3332Z" fill="white"/>
<path d="M37.5576 53.3284C37.5576 53.6997 37.4331 54.0102 37.1834 54.2593C36.9337 54.509 36.6238 54.6336 36.2524 54.6336C35.8876 54.6336 35.5788 54.509 35.3262 54.2593C35.0736 54.0096 34.9473 53.6997 34.9473 53.3284C34.9473 52.9571 35.0712 52.646 35.3192 52.3951C35.5671 52.1443 35.8782 52.0186 36.2524 52.0186C36.6238 52.0186 36.9337 52.1431 37.1834 52.3928C37.4331 52.6425 37.5576 52.9542 37.5576 53.3284ZM37.2196 53.3284C37.2196 53.0454 37.1278 52.8074 36.9436 52.6144C36.7594 52.4215 36.529 52.3244 36.2524 52.3244C35.9723 52.3244 35.7414 52.4203 35.5589 52.6121C35.3765 52.8039 35.2853 53.0425 35.2853 53.3284C35.2853 53.6114 35.3765 53.8488 35.5589 54.0406C35.7414 54.2324 35.9729 54.3283 36.2524 54.3283C36.529 54.3283 36.76 54.233 36.9436 54.043C37.1278 53.8529 37.2196 53.6149 37.2196 53.329V53.3284Z" fill="white"/>
<path d="M40.0035 54.5744H39.5702L38.5662 53.3102L39.5427 52.0781H39.9398L38.9814 53.2827L40.0035 54.5744ZM38.3697 54.5744H38.0317V52.0781H38.3697V54.5744Z" fill="white"/>
<path d="M42.856 54.5745H42.5367V54.1091C42.4028 54.3008 42.2461 54.4389 42.0666 54.5242C41.9145 54.5973 41.7438 54.6336 41.5555 54.6336C41.1783 54.6336 40.8608 54.5096 40.6041 54.2617C40.3468 54.0137 40.2188 53.6962 40.2188 53.3103C40.2188 52.9787 40.3281 52.6899 40.5474 52.4431C40.7971 52.1601 41.1298 52.0186 41.5467 52.0186C41.7812 52.0186 41.9765 52.0607 42.1332 52.1443C42.29 52.2279 42.4215 52.3507 42.5279 52.5115L42.5373 52.0782H42.8566V54.5745H42.856ZM42.5367 53.3424C42.5367 53.0594 42.4426 52.8191 42.2537 52.6214C42.0648 52.4238 41.8292 52.325 41.5461 52.325C41.2725 52.325 41.0386 52.4215 40.8456 52.615C40.6526 52.808 40.5556 53.0495 40.5556 53.3383C40.5556 53.6184 40.6538 53.8535 40.8497 54.0436C41.0462 54.2336 41.2813 54.3289 41.5549 54.3289C41.8257 54.3289 42.0566 54.233 42.2484 54.0412C42.4402 53.8494 42.5361 53.6167 42.5361 53.343L42.5367 53.3424Z" fill="white"/>
<path d="M44.8233 52.384H44.1795V54.5744H43.8421V52.384H43.1982V52.0781H44.8233V52.384Z" fill="white"/>
<path d="M48.7701 54.5745H48.4508V54.1091C48.3169 54.3008 48.1602 54.4389 47.9806 54.5242C47.8286 54.5973 47.6579 54.6336 47.4696 54.6336C47.0924 54.6336 46.7749 54.5096 46.5182 54.2617C46.2609 54.0137 46.1328 53.6962 46.1328 53.3103C46.1328 52.9787 46.2422 52.6899 46.4614 52.4431C46.7111 52.1601 47.0439 52.0186 47.4608 52.0186C47.6953 52.0186 47.8906 52.0607 48.0473 52.1443C48.204 52.2279 48.3356 52.3507 48.442 52.5115L48.4514 52.0782H48.7706V54.5745H48.7701ZM48.4508 53.3424C48.4508 53.0594 48.3566 52.8191 48.1678 52.6214C47.9789 52.4238 47.7432 52.325 47.4602 52.325C47.1865 52.325 46.9526 52.4215 46.7597 52.615C46.5667 52.808 46.4696 53.0495 46.4696 53.3383C46.4696 53.6184 46.5679 53.8535 46.7638 54.0436C46.9602 54.2336 47.1953 54.3289 47.469 54.3289C47.7397 54.3289 47.9707 54.233 48.1625 54.0412C48.3543 53.8494 48.4502 53.6167 48.4502 53.343L48.4508 53.3424Z" fill="white"/>
<path d="M51.0707 53.8534C51.0707 54.0604 51.0041 54.2294 50.8702 54.3598C50.724 54.5025 50.5234 54.5744 50.2679 54.5744H49.3457V52.0781H50.2404C50.5053 52.0781 50.7012 52.1512 50.8292 52.2974C50.9298 52.4132 50.9801 52.5623 50.9801 52.7447C50.9801 52.8605 50.9503 52.964 50.8912 53.0553C50.8321 53.1465 50.7503 53.2149 50.6468 53.2605C50.7748 53.2938 50.8772 53.3646 50.9549 53.4728C51.0327 53.5809 51.0713 53.7078 51.0713 53.854L51.0707 53.8534ZM50.6415 52.7442C50.6415 52.6225 50.6058 52.5319 50.5345 52.4728C50.4632 52.4138 50.3573 52.384 50.2176 52.384H49.6837V53.1418H50.2176C50.3515 53.1418 50.4556 53.1061 50.5304 53.0348C50.6047 52.9634 50.6421 52.867 50.6421 52.7447L50.6415 52.7442ZM50.7327 53.8575C50.7327 53.7236 50.6889 53.6219 50.6006 53.5517C50.5123 53.4815 50.3889 53.4465 50.231 53.4465H49.6831V54.268H50.231C50.4105 54.268 50.5427 54.2224 50.6281 54.1312C50.6982 54.0581 50.7333 53.9669 50.7333 53.8575H50.7327Z" fill="white"/>
<path d="M52.9277 52.384H52.2844V54.5744H51.9465V52.384H51.3032V52.0781H52.9277V52.384Z" fill="white"/>
<path d="M55.7851 53.3284C55.7851 53.6997 55.6606 54.0102 55.4109 54.2593C55.1612 54.509 54.8513 54.6336 54.48 54.6336C54.1151 54.6336 53.8063 54.509 53.5537 54.2593C53.3011 54.0096 53.1748 53.6997 53.1748 53.3284C53.1748 52.9571 53.2988 52.646 53.5467 52.3951C53.7946 52.1443 54.1057 52.0186 54.48 52.0186C54.8513 52.0186 55.1612 52.1431 55.4109 52.3928C55.6606 52.6425 55.7851 52.9542 55.7851 53.3284ZM55.4472 53.3284C55.4472 53.0454 55.3554 52.8074 55.1712 52.6144C54.987 52.4215 54.7566 52.3244 54.48 52.3244C54.1999 52.3244 53.9689 52.4203 53.7865 52.6121C53.604 52.8039 53.5128 53.0425 53.5128 53.3284C53.5128 53.6114 53.604 53.8488 53.7865 54.0406C53.9689 54.2324 54.2005 54.3283 54.48 54.3283C54.7566 54.3283 54.9875 54.233 55.1712 54.043C55.3554 53.8529 55.4472 53.6149 55.4472 53.329V53.3284Z" fill="white"/>
<path d="M58.9701 54.5744H58.6327V52.4524L57.7608 54.5744H57.469L56.5972 52.4524V54.5744H56.2598V52.0781H56.7796L57.6152 54.1183L58.4503 52.0781H58.9701V54.5744Z" fill="white"/>
<path d="M62.0601 53.3284C62.0601 53.6997 61.9355 54.0102 61.6858 54.2593C61.4361 54.509 61.1262 54.6336 60.7549 54.6336C60.39 54.6336 60.0812 54.509 59.8286 54.2593C59.576 54.0096 59.4497 53.6997 59.4497 53.3284C59.4497 52.9571 59.5737 52.646 59.8216 52.3951C60.0695 52.1443 60.3806 52.0186 60.7549 52.0186C61.1262 52.0186 61.4361 52.1431 61.6858 52.3928C61.9355 52.6425 62.0601 52.9542 62.0601 53.3284ZM61.7221 53.3284C61.7221 53.0454 61.6303 52.8074 61.4461 52.6144C61.2619 52.4215 61.0315 52.3244 60.7549 52.3244C60.4748 52.3244 60.2438 52.4203 60.0614 52.6121C59.8789 52.8039 59.7877 53.0425 59.7877 53.3284C59.7877 53.6114 59.8789 53.8488 60.0614 54.0406C60.2438 54.2324 60.4754 54.3283 60.7549 54.3283C61.0315 54.3283 61.2624 54.233 61.4461 54.043C61.6303 53.8529 61.7221 53.6149 61.7221 53.329V53.3284Z" fill="white"/>
<path d="M65.0674 53.37C65.0674 53.7413 64.9481 54.0448 64.709 54.2805C64.4704 54.5161 64.1605 54.6343 63.7804 54.6343C63.3816 54.6343 63.0652 54.5097 62.8313 54.26C62.5699 53.9799 62.439 53.5636 62.439 53.0098C62.439 52.5443 62.5197 52.1719 62.6811 51.8918C62.8179 51.6543 63.005 51.4854 63.2424 51.3854C63.4249 51.3093 63.6412 51.2713 63.8903 51.2713L64.9628 51.1982V51.5041L63.8903 51.5772C63.6167 51.5772 63.3851 51.638 63.1968 51.7596C62.8957 51.9543 62.7448 52.2847 62.7448 52.7502C62.836 52.5525 62.9758 52.3958 63.1646 52.28C63.3535 52.1643 63.5617 52.1064 63.7897 52.1064C64.1698 52.1064 64.478 52.221 64.7137 52.4508C64.9493 52.6806 65.0674 52.987 65.0674 53.3706V53.37ZM64.7294 53.37C64.7294 53.0812 64.6406 52.849 64.4622 52.6742C64.2844 52.4993 64.057 52.4116 63.7798 52.4116C63.5061 52.4116 63.2793 52.5028 63.0997 52.6853C62.9202 52.8677 62.8307 53.0958 62.8307 53.37C62.8307 53.6437 62.9208 53.8717 63.0997 54.0548C63.2793 54.2372 63.5061 54.3284 63.7798 54.3284C64.0599 54.3284 64.288 54.2372 64.4646 54.0548C64.6411 53.8723 64.7294 53.6443 64.7294 53.37Z" fill="white"/>
<path d="M67.7099 54.5744H67.3725V52.557L65.8843 54.5744H65.5469V52.0781H65.8843V54.0955L67.3725 52.0781H67.7099V54.5744Z" fill="white"/>
<path d="M70.5166 54.5744H70.1511L69.2751 52.5073L68.3992 54.5744H68.0337L69.1015 52.0781H69.4529L70.5166 54.5744Z" fill="white"/>
<path d="M73.3275 53.447H71.0961C71.0961 53.6932 71.189 53.902 71.3744 54.0721C71.5598 54.2423 71.7837 54.3277 72.0451 54.3277C72.2369 54.3277 72.41 54.2768 72.5656 54.175C72.7205 54.0733 72.838 53.9353 72.917 53.7622H73.2684C73.1679 54.0329 73.01 54.2458 72.7936 54.4013C72.5778 54.5563 72.3281 54.6341 72.0451 54.6341C71.6738 54.6341 71.3645 54.5101 71.1165 54.2622C70.8686 54.0142 70.7446 53.7031 70.7446 53.3289C70.7446 52.9915 70.854 52.6962 71.0733 52.4436C71.3194 52.1606 71.644 52.019 72.0451 52.019C72.4802 52.019 72.8117 52.1758 73.0398 52.4892C73.2316 52.7506 73.3275 53.0704 73.3275 53.4476V53.447ZM72.9626 53.1412C72.917 52.8915 72.8088 52.6933 72.6386 52.5459C72.4685 52.3985 72.2703 52.3243 72.0451 52.3243C71.8048 52.3243 71.5972 52.3997 71.4224 52.55C71.2475 52.7009 71.1388 52.8973 71.0961 53.1412H72.9626Z" fill="white"/>
<path d="M75.5824 51.1978C75.555 51.3527 75.4912 51.4808 75.3906 51.5814C75.2661 51.7094 75.0989 51.7732 74.8889 51.7732C74.6819 51.7732 74.5147 51.7094 74.3872 51.5814C74.2866 51.4808 74.2229 51.3533 74.1954 51.1978H74.4831C74.5012 51.3013 74.5486 51.3796 74.6246 51.4328C74.7006 51.486 74.7889 51.5129 74.8895 51.5129C74.993 51.5129 75.0819 51.4872 75.1567 51.4352C75.231 51.3837 75.2778 51.3042 75.2959 51.1978H75.5836H75.5824ZM75.9701 54.5747H75.6327V52.5573L74.1451 54.5747H73.8071V52.0784H74.1451V54.0958L75.6327 52.0784H75.9701V54.5747Z" fill="white"/>
</svg>
