<svg width="34" height="19" viewBox="0 0 34 19" fill="none" xmlns="http://www.w3.org/2000/svg">
<path d="M15.3316 9.64837C15.334 10.5879 15.1512 11.5187 14.7938 12.3876C14.4365 13.2565 13.9114 14.0465 13.2488 14.7126C12.5861 15.3786 11.7987 15.9075 10.9316 16.2692C10.0644 16.6309 9.13456 16.8183 8.19503 16.8207C7.25543 16.8184 6.32547 16.6311 5.45825 16.2695C4.59104 15.9078 3.80356 15.3789 3.14078 14.7128C2.478 14.0468 1.9529 13.2568 1.59548 12.3878C1.23805 11.5188 1.05529 10.588 1.05764 9.64837V9.64837C1.05529 8.70883 1.23802 7.77803 1.5954 6.90912C1.95278 6.0402 2.4778 5.25019 3.14049 4.58418C3.80319 3.91817 4.59057 3.38921 5.45769 3.0275C6.32481 2.66579 7.25468 2.47842 8.19422 2.47607V2.47607C9.13382 2.47831 10.0638 2.66561 10.931 3.02727C11.7982 3.38893 12.5857 3.91787 13.2485 4.58389C13.9112 5.24991 14.4363 6.03996 14.7938 6.90893C15.1512 7.7779 15.334 8.70876 15.3316 9.64837V9.64837ZM10.2143 9.64837C10.2124 10.0475 10.0923 10.4371 9.86917 10.768C9.64602 11.0989 9.32986 11.3564 8.96056 11.5078C8.59127 11.6592 8.1854 11.6978 7.79418 11.6187C7.40295 11.5397 7.04391 11.3465 6.76237 11.0636C6.48082 10.7807 6.28939 10.4208 6.21223 10.0292C6.13507 9.63757 6.17564 9.23189 6.32882 8.86332C6.482 8.49476 6.74092 8.17984 7.07292 7.95829C7.40491 7.73674 7.79509 7.61851 8.19422 7.6185C8.46021 7.61903 8.7235 7.67197 8.96903 7.77427C9.21456 7.87658 9.43753 8.02626 9.62521 8.21476C9.81288 8.40327 9.96157 8.62689 10.0628 8.87287C10.164 9.11886 10.2158 9.38237 10.2152 9.64837H10.2143Z" stroke="white" stroke-linecap="round" stroke-linejoin="round"/>
<path d="M21.519 0.941162H17.8237C17.5794 0.941162 17.3813 1.1392 17.3813 1.3835V17.9138C17.3813 18.1581 17.5794 18.3561 17.8237 18.3561H21.519C21.7633 18.3561 21.9613 18.1581 21.9613 17.9138V1.3835C21.9613 1.1392 21.7633 0.941162 21.519 0.941162Z" stroke="white" stroke-linecap="round" stroke-linejoin="round"/>
<path d="M24.0107 5.27539V8.18262L25.47 9.64759L24.0107 11.1142V14.0214H26.9034L28.361 12.5548L29.8203 14.0214H32.7113V11.1142L31.2536 9.64759L32.7113 8.18262V5.27539H29.8203L28.361 6.74199L26.9034 5.27539H24.0107Z" stroke="white" stroke-linecap="round" stroke-linejoin="round"/>
</svg>
